
        <svg xmlns="http://www.w3.org/2000/svg" xmlns:xlink="http://www.w3.org/1999/xlink" version="1.1" width="3162.1621621621625" 
        height="729.7297297297298" viewBox="0 0 3162.1621621621625 729.7297297297298">
			
			<g transform="scale(8.108108108108109) translate(10, 10)">
				<defs id="SvgjsDefs1059"></defs><g id="SvgjsG1060" featureKey="symbolFeature-0" transform="matrix(0.34516764766583796,0,0,0.34516764766583796,0,0)" fill="#fd7014"><path xmlns="http://www.w3.org/2000/svg" d="M101.4,0C45.4,0,0,45.4,0,101.4c0,56,45.4,101.4,101.4,101.4c56,0,101.4-45.4,101.4-101.4C202.8,45.4,157.4,0,101.4,0z     M27.2,53.2l4.1,4.1v25.9L18.6,70.4C20.8,64.3,23.8,58.6,27.2,53.2z M101.4,189.8c-48.8,0-88.4-39.6-88.4-88.4    c0-9.1,1.4-17.9,3.9-26.1l14.5,14.5v28.5h0l-0.1,0.1l23.2,23.2c-3.6,5.2-3.1,12.4,1.5,17c5.2,5.2,13.6,5.2,18.8,0    c5.2-5.2,5.2-13.6,0-18.8c-4.6-4.6-11.8-5.1-17-1.5L36,116.5v-22l15.4,15.4c-3.6,5.2-3.1,12.4,1.5,17c5.2,5.2,13.6,5.2,18.8,0    s5.2-13.6,0-18.8c-4.6-4.6-11.8-5.1-17-1.5L36,87.9l0-32.4l0,0l-6.1-6.1c2.1-2.9,4.4-5.6,6.8-8.2L54,58.3l0,20.6h0L53.9,79l41,41    c-3.6,5.2-3.1,12.4,1.5,17c5.2,5.2,13.6,5.2,18.8,0c5.2-5.2,5.2-13.6,0-18.8c-4.6-4.6-11.8-5.1-17-1.5L58.6,77.1l0-20.6l0,0    L40,37.8c1.3-1.2,2.6-2.4,4-3.6l92.4,92.4c-3.6,5.2-3.1,12.4,1.5,17c5.3,5.3,14,5.2,19.2-0.4c4.8-5.2,4.6-13.4-0.3-18.4    c-4.6-4.7-11.9-5.2-17.1-1.5L47.6,31.2c1.4-1.1,2.9-2.2,4.5-3.2l31.7,31.7v0h0l0,0l0,0h20.5l14,14c-3.6,5.2-3.1,12.4,1.5,17    c5.2,5.2,13.6,5.2,18.8,0c5.2-5.2,5.2-13.6,0-18.8c-4.6-4.6-11.8-5.1-17-1.5l-15.4-15.4l0,0H85.7L56,25.5    c8.9-5.3,18.9-9.2,29.5-11.1l17.9,17.9c-3.6,5.2-3.1,12.4,1.5,17c5.2,5.2,13.6,5.2,18.8,0c5.2-5.2,5.2-13.6,0-18.8    c-4.6-4.6-11.8-5.1-17-1.5L91.2,13.6c3.3-0.4,6.7-0.6,10.2-0.6c48.8,0,88.4,39.6,88.4,88.4S150.2,189.8,101.4,189.8z M59.3,143    c3.4-3.4,8.9-3.4,12.3,0c3.4,3.4,3.4,8.9,0,12.3c-3.4,3.4-8.9,3.4-12.3,0C55.9,151.9,55.9,146.4,59.3,143z M56.2,111.3    c3.4-3.4,8.9-3.4,12.3,0c3.4,3.4,3.4,8.9,0,12.3c-3.4,3.4-8.9,3.4-12.3,0C52.8,120.3,52.8,114.7,56.2,111.3z M99.6,121.4    c3.4-3.4,8.9-3.4,12.3,0c3.4,3.4,3.4,8.9,0,12.3c-3.4,3.4-8.9,3.4-12.3,0C96.3,130.3,96.3,124.8,99.6,121.4z M141.1,128.1    c3.4-3.4,8.9-3.4,12.3,0c3.4,3.4,3.4,8.9,0,12.3c-3.4,3.4-8.9,3.4-12.3,0C137.7,137,137.7,131.5,141.1,128.1z M123.1,75.3    c3.4-3.4,8.9-3.4,12.3,0c3.4,3.4,3.4,8.9,0,12.3c-3.4,3.4-8.9,3.4-12.3,0C119.7,84.2,119.7,78.7,123.1,75.3z M108.1,33.7    c3.4-3.4,8.9-3.4,12.3,0c3.4,3.4,3.4,8.9,0,12.3c-3.4,3.4-8.9,3.4-12.3,0C104.7,42.7,104.7,37.1,108.1,33.7z"></path></g><g id="SvgjsG1061" featureKey="nameFeature-0" transform="matrix(1.0118531322811062,0,0,1.0118531322811062,87.08586286323302,8.857764342583414)" fill="#111111"><path d="M15.52 22.8 c2.76 0 5 2.24 5 5 l0 7.24 c0 2.76 -2.24 4.96 -5 4.96 l-12.64 0 l0 -6.4 l11.2 0 l0 -4.36 l-6.24 0 c-2.76 0 -4.96 -2.24 -4.96 -5 l0 -7.24 c0 -2.76 2.24 -5 4.96 -5 l12.68 0 l0 6.44 l-11.24 0 l0 4.36 l6.24 0 z M38.56 12 l7.8 28 l-6.4 0 l-1.12 -4.04 l-6.92 0 l-1.12 4.04 l-6.4 0 l7.8 -28 l6.36 0 z M33.72 29.439999999999998 l3.32 0 l-1.68 -5.96 z M68.72 12 l6.4 0 l0 28 l-6.4 0 l0 -12.52 l-4.08 9.84 l-2.04 0 l-4.08 -9.84 l0 12.52 l-6.4 0 l0 -28 l6.4 0 l5.08 12.28 z M94.28 33.6 l0 -21.6 l6.4 0 l0 23.04 c0 2.76 -2.24 4.96 -5 4.96 l-9.84 0 c-2.76 0 -4.96 -2.2 -4.96 -4.96 l0 -23.04 l6.4 0 l0 21.6 l7 0 z M124.04 18.44 l-11.2 0 l0 4.36 l8.04 0 l0 6.4 l-8.04 0 l0 4.4 l11.2 0 l0 6.4 l-17.6 0 l0 -28 l17.6 0 l0 6.44 z M136.2 12 l0 21.6 l10.32 0 l0 6.4 l-16.72 0 l0 0 l0 -28 l6.4 0 z M175 12 c2.76 0 5 2.24 5 5 l0 5.28 c0 1.84 -1.32 3.4 -3.16 3.68 l-0.24 0.04 l0.24 0.04 c1.84 0.32 3.16 1.88 3.16 3.68 l0 5.32 c0 2.72 -2.24 4.96 -5 4.96 l-14.8 0 l0 -28 l14.8 0 z M173.6 32.28 l0 -1.72 c0 -0.76 -0.6 -1.32 -1.32 -1.32 l-5.68 0 l0 4.36 l5.68 0 c0.72 0 1.32 -0.6 1.32 -1.32 z M173.6 21.48 l0 -1.72 c0 -0.72 -0.6 -1.32 -1.32 -1.32 l-5.68 0 l0 4.36 l5.68 0 c0.72 0 1.32 -0.6 1.32 -1.32 z M197.88 12 l7.8 28 l-6.4 0 l-1.12 -4.04 l-6.92 0 l-1.12 4.04 l-6.4 0 l7.8 -28 l6.36 0 z M193.04 29.439999999999998 l3.32 0 l-1.68 -5.96 z M223.48000000000002 22.8 c2.76 0 5 2.24 5 5 l0 7.24 c0 2.76 -2.24 4.96 -5 4.96 l-12.64 0 l0 -6.4 l11.2 0 l0 -4.36 l-6.24 0 c-2.76 0 -4.96 -2.24 -4.96 -5 l0 -7.24 c0 -2.76 2.24 -5 4.96 -5 l12.68 0 l0 6.44 l-11.24 0 l0 4.36 l6.24 0 z M247.64000000000001 30.4 l6.4 0 l0 4.6 c0 2.76 -2.24 5 -5 5 l-9.8 0 c-2.76 0 -5 -2.24 -5 -5 l0 -18 c0 -2.76 2.24 -5 5 -5 l9.8 0 c2.76 0 5 2.24 5 5 l0 4.6 l-6.4 0 l0 -3.16 l-7 0 l0 15.16 l7 0 l0 -3.2 z M273.20000000000005 22.8 l0 -10.8 l6.4 0 l0 28 l-6.4 0 l0 -10.8 l-7 0 l0 10.8 l-6.4 0 l0 -28 l6.4 0 l0 10.8 l7 0 z"></path></g>
			</g>
		</svg>
	